<?xml version="1.0" standalone="no"?><!DOCTYPE svg PUBLIC "-//W3C//DTD SVG 1.1//EN" "http://www.w3.org/Graphics/SVG/1.1/DTD/svg11.dtd"><svg t="1631238817450" class="icon" viewBox="0 0 1024 1024" version="1.1" xmlns="http://www.w3.org/2000/svg" p-id="2158" xmlns:xlink="http://www.w3.org/1999/xlink" width="200" height="200"><defs><style type="text/css"></style></defs><path d="M606.347751 353.290996l3.65689 324.000409 12.433424-0.365689 13.89618 46.808185 61.070054-47.539563 48.270942-0.365689-3.65689-324.366097z" fill="#3F4A65" p-id="2159"></path><path d="M506.148979 0.035472C223.471422 3.326672-3.255726 234.807777 0.035474 517.851023 3.326675 800.528581 234.807779 1027.255729 517.851026 1023.964528c282.677557-3.291201 509.404706-234.772305 506.113505-517.815551C1020.67333 223.471419 789.192226-3.255729 506.148979 0.035472z m-83.742769 545.242222l-17.918758 76.063302 25.963915-23.769782s61.435743 68.749522 72.406412 85.936903c11.336357 17.187381 2.559823 78.257435 2.559822 78.257435l-104.952728-127.259754s-31.44925 115.192019-74.966234 141.521623c-43.882674 26.695293-89.228103 8.410846-89.228104 8.410846s62.167121-45.34543 94.713438-103.124284c32.546316-57.413165 42.785607-135.6706 42.785607-135.6706l-128.72251 1.462756s9.142224-46.076808 26.329604-47.539563c17.187381-1.462756 101.661528-1.097067 101.661528-1.097067l-2.925512-141.521623-49.002319 2.925511s-8.410846 34.74045-35.106139 55.219032c-26.695293 20.112892-42.785607 12.799113-42.785607 12.799113s46.442496-134.573533 60.704366-160.903138c14.627558-26.329604 55.950409-29.255116 55.950409-29.255116l-24.50116 76.063302 165.657094-1.828445c19.747203-0.365689 21.209959 45.711119 21.209959 45.711119l-101.661528 1.097066 1.462756 138.961801s68.749522-3.291201 90.690859-1.097067c21.941337 2.194134 22.672715 46.808185 22.672715 46.808186l-112.997885 1.828444z m268.049999 178.456207l-72.406411 53.390587-15.724625-52.29352-41.322851 0.365689-4.388268-417.982468 231.846794-2.559823 4.753956 417.982468-102.758595 1.097067z" fill="#3F4A65" p-id="2160"></path></svg>