<?xml version="1.0" standalone="no"?><!DOCTYPE svg PUBLIC "-//W3C//DTD SVG 1.1//EN" "http://www.w3.org/Graphics/SVG/1.1/DTD/svg11.dtd"><svg t="1631252179171" class="icon" viewBox="0 0 1024 1024" version="1.1" xmlns="http://www.w3.org/2000/svg" p-id="5904" xmlns:xlink="http://www.w3.org/1999/xlink" width="200" height="200"><defs><style type="text/css"></style></defs><path d="M203.596952 568.015806c5.473328 0.162574 10.946655 0.14451 16.438047 0.66836 4.823031 0.451595 9.790573 0.018064 13.92718-3.359865 0.957381-0.776743 2.348292-1.228338 3.594694-1.390911 2.366356-0.325148 4.263054-1.878634 6.322325-2.438612 5.545583-1.499294 10.278295-5.003669 15.950325-5.96105 1.19221-0.198702 2.312165-0.469658 3.05278-1.390911 1.661868-2.113463 3.793395-2.926334 6.448772-2.799887 1.445103 0.072255 2.980525-0.198702 4.064353-1.246402 2.221846-2.167655 4.931414-2.836015 7.875811-3.070844 0.686424-0.054191 1.535422-0.252893 2.005081-0.686423 2.637313-2.510866 6.213943-2.872142 9.266723-4.353373 3.377928-1.643805 6.575219-3.414056 10.368614-3.757268 3.070844-3.612758 7.731301-3.377928 11.669207-4.91335 2.00508-0.776743 3.974033-1.661868 6.069432-2.23991 1.950889-0.541914 3.757268-1.408975 5.256563-2.890206 1.372848-1.354784 3.088908-2.131527 5.075924-2.113463 1.806379 0 3.414056-0.66836 4.877223-1.57155 2.492803-1.535422 5.039797-2.799887 8.038385-2.90827 0.415467-0.018064 0.993508-0.072255 1.228338-0.343212 3.395992-4.10048 9.086085-3.359865 13.042055-6.268134 1.19221-0.885126 2.727632-0.848998 4.136607-1.138019 1.824443-0.37934 3.57663-0.740615 5.003669-2.276037 1.408975-1.535422 3.522439-1.824443 5.545583-2.113463 2.709568-0.397403 5.473328-0.66836 7.406153-3.034716 0.343212-0.415467 0.957381-0.758679 1.481231-0.848998 4.967542-0.776743 9.338978-3.793395 14.577476-3.685013 2.727632 0.054191 5.328817-0.686424 7.351962-3.016653 1.752187-2.00508 4.497883-1.770251 6.900367-2.00508 2.257973-0.216765 4.281118-0.505786 5.635902-2.565058 0.776743-1.174146 1.968953-1.517358 3.395992-1.481231 2.637313 0.072255 5.166243-0.234829 6.990686-2.546994 0.415467-0.52385 1.210274-1.0477 1.842506-1.065763 5.075924-0.180638 9.049958-3.395992 13.63816-4.877223 1.210274-0.397403 2.727632-0.451595 3.395992-1.697996 1.589613-2.980525 4.732712-3.106971 7.333898-3.955969 4.226926-1.354784 8.471916-2.817951 12.969799-3.143099 0.830934-0.054191 1.752187-0.415467 2.402484-0.921254 2.709568-2.077336 5.762348-3.215354 9.104149-3.703076 1.156082-0.180638 2.185718-0.650296 3.088908-1.463167 1.427039-1.282529 3.161163-1.987017 5.021733-2.402484 1.57155-0.343212 2.980525-0.975445 4.208862-2.077335 0.722552-0.650296 1.71606-1.282529 2.637313-1.390912 3.703076-0.469658 6.4849-2.637313 9.609935-4.335309 2.799887-1.517358 5.238498-3.522439 7.911939-5.14818 2.294101-1.408975 4.443692-3.269546 6.34039-5.130115 2.510866-2.438611 5.112052-5.112052 5.148179-9.194468 0.018064-1.535422 0.66836-3.125035 1.734124-4.371437 1.788315-2.059272 2.546994-4.588202 2.817951-7.15326 0.52385-5.166243 1.065763-10.368614 0.957381-15.534857-0.162574-8.363534-0.252893-16.727067-0.975445-25.072538-0.198702-2.203782-0.216765-4.281118-2.276037-5.762348-1.246401-0.885126-1.625741-2.330229-1.697996-3.829523-0.14451-3.395992-0.903189-6.557155-3.323737-9.140277-0.469658-0.505786-1.0477-1.246401-1.029636-1.86057 0.072255-5.4372-3.974033-9.483489-4.804968-14.577476-0.198702-1.174146-0.614169-2.221846-1.318656-3.161163-1.408975-1.896698-2.438611-3.937906-2.312165-6.376517 0.018064-0.289021 0.018064-0.632233-0.126446-0.848998-2.781823-4.353373-4.010161-9.447361-6.683602-13.854926-0.451595-0.740615-1.445103-1.372848-1.463167-2.077335-0.180638-4.642393-3.757268-8.020322-4.497883-12.427886-0.234829-1.445103-0.614169-2.890206-1.752187-3.883715-2.420548-2.131527-2.420548-5.509455-4.208863-7.96613-0.794807-1.101891 0.036128-2.059272 1.174146-2.167654 4.534011-0.469658 9.212532-1.535422 13.005928 2.330228 0.397403 0.415467 0.81287 1.029636 1.282528 1.101891 3.558566 0.578041 7.026813 1.246401 9.447361 4.299182 4.515947 0.307084 7.044877 3.992097 9.808637 6.611346 4.353373 4.136607 8.760937 8.291279 12.44595 13.168501 2.023144 2.691504 2.980525 5.81654 4.786904 8.580299 2.38442 3.666949 4.497883 7.640982 6.62941 11.542761 2.185718 4.010161 3.251482 8.562235 6.232007 12.193057 0.975445 1.174146 1.264465 2.890206 1.932825 4.317245 2.420548 5.14818 6.123624 6.593283 11.271803 4.407564 1.065763-0.451595 2.113463-0.993508 3.233418-1.246401 6.77392-1.535422 11.687271-5.726221 16.112899-10.820209 4.732712-5.455264 8.34547-11.687271 12.518205-17.539938 0.52385-0.740615 0.704488-1.553486 0.848998-2.420548 0.126447-0.704488 0.162574-1.625741 0.614169-2.041208 3.323737-3.05278 3.558566-7.785493 6.141688-11.217612 0.885126-1.19221 1.463167-2.456675 1.661868-3.937906 0.126447-0.848998 0.198702-1.987017 0.740615-2.420547 4.281118-3.395992 3.179227-9.483489 6.755857-13.222693 0.632233-0.650296 0.830934-1.86057 0.921253-2.854078 0.289021-2.926334 0.957381-5.653966 3.05278-7.893875 0.451595-0.487722 0.578041-1.300593 0.758679-1.987017 0.108383-0.415467-0.090319-0.939317 0.108383-1.282529 3.287609-5.870731 3.72114-12.897544 7.388089-18.587638 0.903189-1.390912 1.119955-2.944397 1.679933-4.425628 1.174146-3.088908 1.210274-3.016653 4.317245-2.619249 3.594694 0.469658 6.232007 2.456675 9.068021 4.47982 4.804968 3.414056 8.002258 8.237087 11.705335 12.536268 2.492803 2.90827 4.985605 6.34039 5.455264 10.567316 0.108383 1.029636 0.559977 2.041208 1.372848 2.637313 2.727632 2.00508 3.161163 5.039797 3.757267 8.002258 0.198702 0.975445 0.216765 2.113463 0.740616 2.90827 2.836015 4.407564 2.601185 9.375106 2.745695 14.270392 0.072255 2.546994-0.848998 4.76884-2.890206 6.4849-7.82162 6.62941-14.559413 14.396839-22.001693 21.423652-4.172735 3.937906-8.038386 8.273215-12.247248 12.193057-10.332487 9.609935-20.159187 19.74372-30.112334 29.732995-10.169913 10.20604-20.26757 20.520463-30.292972 30.889077-1.318657 1.354784-2.709568 2.583122-4.172735 3.757268-3.377928 2.727632-2.691504 8.634491 1.246401 10.422805 3.666949 1.661868 7.117132 3.57663 9.736382 6.737793 0.903189 1.101891 2.131527 1.427039 3.468247 1.463167 7.370025 0.252893 14.740051-0.090319 22.092012-0.415467 1.463167-0.072255 2.799887-0.704488 4.010161-1.535422 2.601185-1.806379 5.58171-2.330229 8.634491-2.330229 8.255151 0.018064 16.365792-0.993508 24.530623-2.077336 6.611346-0.885126 13.367203-1.878634 20.12306-1.589613 2.167655 0.090319 3.883714-0.307084 5.130116-2.38442 1.065763-1.788315 3.070844-1.914762 4.985605-2.00508 5.328817-0.270957 10.675699-0.632233 16.004516-0.867062 2.077336-0.090319 4.010161-0.505786 5.798476-1.553486 2.438611-1.427039 5.075924-1.987017 7.857748-2.059272 4.190799-0.126447 8.363534-0.433531 12.554332-0.487722 3.106971-0.036128 5.979114-1.011572 8.815129-2.023144 2.90827-1.029636 5.81654-1.607677 8.869319-1.679932 4.750776-0.126447 9.519616-0.162574 14.270393-0.614169 1.788315-0.180638 3.359865-0.343212 4.642393-1.806379 1.33672-1.517358 3.179227-1.71606 5.14818-1.71606 6.936494 0.054191 13.872989 0.108383 20.809483-0.072255 3.95597-0.108383 7.767429 0.289021 11.434378 1.788315 4.064352 1.661868 8.381598 1.987017 12.716906 2.167655 2.673441 0.108383 5.166243 0.614169 6.882303 2.962461 0.722552 0.993508 1.896698 1.282529 3.016653 1.553485 2.52893 0.578041 4.786904 1.589613 7.099069 2.872143 7.333898 4.082416 13.096246 9.591871 17.070279 16.97996 0.397403 0.740615 1.029636 1.372848 1.607677 2.023144 0.722552 0.794807 0.939317 1.770251 1.029636 2.781824 0.198702 2.330229-3.612758 9.898956-5.780412 10.946655-2.474739 1.210274-4.046288 3.034716-5.220435 5.473328-1.210274 2.510866-2.691504 3.143099-4.841095 1.571549-4.046288-2.962461-8.652554-2.90827-13.222692-3.269545-2.149591-0.180638-4.335309-0.162574-6.502964-0.162574-3.793395 0.018064-7.424217-0.307084-10.856336-2.294101-2.257973-1.300593-4.985605-1.390912-7.586791-1.481231-3.757268-0.126447-7.514536-0.162574-11.271804-0.216765-2.709568-0.036128-5.112052-0.596105-6.882303-2.926334-1.86057-2.438611-4.570138-2.167655-7.171324-1.86057-8.128704 0.957381-16.040644 0.37934-23.717753-2.637313-1.625741-0.632233-3.359865-0.722552-5.112052-0.758679-10.982783-0.234829-21.947502-0.216765-32.912221 0.614169-0.722552 0.054191-1.499294-0.054191-2.149591 0.180637-8.399661 3.106971-17.160598 1.661868-25.758961 1.950889-4.208863 0.14451-7.984194 0.37934-11.958228 2.601186-3.43212 1.914762-7.713237 3.106971-12.048546 2.944397-6.557155-0.234829-12.933672 0.632233-19.057296 3.215355-2.817951 1.19221-5.888795 1.481231-8.941575 0.95738-2.546994-0.433531-4.750776-0.361276-6.647474 1.878634-1.463167 1.71606-3.739204 2.077336-5.96105 2.131527-3.377928 0.090319-6.647474 0.397403-9.031894 3.251482-0.180638 0.216765-0.451595 0.451595-0.704488 0.487722-4.028225 0.343212-6.918431 3.269546-10.440869 4.62433-4.786904 1.824443-7.659046 5.617838-10.639571 9.194468-1.806379 2.167655-2.185718 5.364945-1.0477 8.291278 0.81287 2.077336 0.903189 4.190799 0.921253 6.376518 0.090319 10.549252 0.216765 21.08044 1.138019 31.593564 0.307084 3.486311 1.607677 6.701665 2.185718 10.133785 0.830934 5.039797 0.794807 10.06153 0.975445 15.101327 0.198702 5.780412 0.307084 11.560824 0.361276 17.341236 0.036128 3.793395 0.776743 7.460344 2.059271 10.982783 1.156082 3.179227 1.752187 6.358453 1.788315 9.736382 0.054191 7.370025 0.289021 14.740051 0.343212 22.110076 0.036128 5.798476 0.180638 11.578888 2.059272 17.106407 1.57155 4.642393 1.589613 9.375106 1.697996 14.125882 0.487722 20.93593 0.180638 41.87186 0.108383 62.80779-0.018064 3.359865-0.596105 6.593283-2.257973 9.591871-0.632233 1.119955-1.138019 2.330229-1.174147 3.685013-0.234829 6.358453-0.776743 12.698843-0.650296 19.057296a33.779283 33.779283 0 0 1-2.348292 13.11431c-1.246401 3.179227-1.661868 6.394581-1.824443 9.718318-0.126447 2.601185-0.343212 5.184307-0.343212 7.785492 0 2.402484-0.451595 4.588202-1.987017 6.466836-1.156082 1.427039-1.481231 3.070844-1.463166 4.859159 0 2.601185-0.054191 5.202371-0.198702 7.803556-0.162574 3.19729-0.505786 6.358453-2.583122 9.01383-1.228338 1.589613-1.390912 3.468247-1.535422 5.328818-0.289021 3.775332-0.903189 7.406153-3.05278 10.675698-1.390912 2.131527-1.481231 4.678521-1.33672 7.135197 0.162574 2.492803-0.37934 4.570138-2.52893 6.069432-0.830934 0.578041-1.625741 1.282529-1.788315 2.366356-0.505786 3.323737-2.402484 6.123624-3.486311 9.158341-2.059272 5.81654-6.376517 9.790573-9.844765 14.469094-0.614169 0.830934-1.589613 1.138019-2.546994 1.535422-3.19729 1.300593-6.448772 2.546994-9.483488 4.172735-1.842506 0.975445-3.088908 0.794807-4.714649-0.307085-3.522439-2.402484-7.207451-4.570138-10.838273-6.846175-0.252893-0.14451-0.487722-0.325148-0.758679-0.415467-7.081005-2.041208-12.987863-6.647474-19.74372-9.320915-2.131527-0.848998-2.583122-3.233418-4.407564-3.757268-1.914762-0.559977-4.010161-0.632233-5.726221-1.734123-4.208863-2.709568-8.598363-5.057861-13.240756-6.954559-1.354784-0.559977-2.583122-1.264465-3.540503-2.402483-0.650296-0.776743-1.390912-1.390912-2.366356-1.824443-3.233418-1.427039-3.811459-2.890206-2.14959-5.906859 1.607677-2.926334 3.775332-5.509455 6.358453-7.604854 4.570138-3.703076 9.501552-6.936494 14.740051-9.664127 3.685013-1.914762 7.225515-4.118544 10.820209-6.213943 0.37934-0.216765 0.704488-0.704488 1.065763-0.722551 4.136607-0.198702 6.900367-3.43212 10.422806-4.714649 3.937906-1.427039 7.333898-3.793395 11.199548-5.238498 0.794807-0.289021 1.932825-0.722552 2.149591-1.354784 1.246401-3.666949 4.804968-4.136607 7.532599-5.780412 1.372848-0.830934 2.673441-1.607677 4.389501-1.535422 2.276037 0.090319 3.594694-1.19221 3.594693-3.414056 0.036128-4.479819 0.108383-8.977703-0.325148-13.403331-0.198702-2.041208-0.234829-3.937906 0.054192-5.942986 2.149591-14.469094 2.420548-29.046571 2.185718-43.642111-0.270957-16.474174-0.614169-32.930285-0.596105-49.40446 0-6.250071-0.397403-12.391758-1.517358-18.515382-0.52385-2.872142-0.180638-5.708157-0.198702-8.580299-0.054191-6.304262 0.054191-12.608524-0.903189-18.894722-0.270957-1.806379 0.325148-3.72114 0.28902-5.563647-0.108383-4.606266-0.018064-9.248659-1.300592-13.764606-0.541914-1.914762 0.126447-3.685013 0.650296-5.509455 0.939317-3.269546 0.81287-3.630821-2.438611-5.075925-1.318657-0.578041-1.535422-1.607677-1.824443-2.691504-1.101891-4.190799-1.71606-8.48998-1.788315-12.807226-0.126447-7.803556-0.090319-15.607113-0.090319-23.410668 0-1.914762 0-3.703076-1.661868-5.112052-1.390912-1.156082-0.776743-2.330229 0.505786-3.161163 2.276037-1.481231 2.492803-3.703076 2.330228-6.105561-0.198702-2.872142-0.52385-5.780412-0.397403-8.652554 0.234829-4.804968-0.66836-9.212532-3.540502-13.096246-0.848998-1.156082-1.210274-2.312165-0.776743-3.630821 1.0477-3.070844 0.596105-6.286198 0.993508-9.411234 0.487722-3.829523-1.138019-5.906859-5.81654-7.243579-3.070844-0.867062-6.322326-0.361276-9.483488-0.036127-0.66836 0.072255-1.517358 0.37934-1.914762 0.867062-2.149591 2.637313-5.14818 2.90827-8.200959 3.179226-1.264465 0.108383-2.781823-0.126447-3.703077 0.939317-2.330229 2.673441-5.364945 3.05278-8.616427 3.125035-1.57155 0.036128-3.143099 0.433531-4.3895 1.607678-2.023144 1.896698-4.497883 2.420548-7.207451 2.348292-1.896698-0.054191-3.703076 0.289021-5.202371 1.71606-2.077336 2.00508-4.660457 2.76376-7.5326 2.709568-2.510866-0.036128-4.823031 0.37934-6.719729 2.348292-1.228338 1.282529-2.980525 1.71606-4.76884 1.752188-2.817951 0.036128-5.401073 0.632233-7.532599 2.691504-0.939317 0.903189-2.23991 1.57155-3.522439 1.499295-4.515947-0.270957-8.417725 1.752187-12.482077 3.179226-3.179227 1.119955-6.828112 1.210274-9.24866 4.064352-5.491391 1.029636-10.567316 3.161163-15.769686 5.112052-2.745696 1.029636-5.798476 1.210274-8.327406 3.125036-1.372848 1.029636-3.143099 1.445103-4.931414 1.427039-2.817951-0.018064-5.473328 0.433531-7.604855 2.510866-0.108383 0.090319-0.234829 0.198702-0.361276 0.23483-6.448772 1.463167-12.229184 5.14818-18.930849 5.744284-2.059272 0.180638-3.992097 0.541914-5.581711 2.023144-0.52385 0.469658-1.210274 1.0477-1.842506 1.083828-6.322326 0.307084-11.416314 4.76884-17.684448 5.238498-0.704488 0.054191-1.57155 0.108383-2.0954 0.505786-4.588202 3.57663-10.657635 3.377928-15.552921 6.141688-1.228338 0.704488-2.655377 1.33672-4.046288 1.445103-3.233418 0.270957-6.304262 0.722552-8.742874 3.125035-0.632233 0.632233-1.589613 0.614169-2.456675 0.704488-3.468247 0.343212-6.737793 1.065763-9.646063 3.305673-1.950889 1.517358-4.660457 1.408975-7.099068 1.553486-2.23991 0.126447-4.263054 0.578041-5.906859 2.23991-0.830934 0.848998-1.914762 1.282529-3.088907 1.427039-3.468247 0.451595-6.448772 2.257973-9.646063 3.323737-5.184307 1.71606-10.06153 4.172735-15.245837 5.798476-1.119955 0.343212-2.221846 0.614169-3.088908 1.445103-1.752187 1.643805-3.775332 2.546994-6.232006 2.637313-1.300593 0.054191-2.492803 0.686424-3.594694 1.408975-0.975445 0.632233-1.932825 1.33672-3.161163 1.264465-2.601185-0.162574-4.804968 0.776743-6.810048 2.312165-1.896698 1.445103-4.154671 1.408975-6.250071 1.0477-8.526108-1.463167-17.142535-1.734124-25.758961-1.914762-1.499294-0.036128-2.998589-0.307084-4.064352-1.228337-2.330229-2.023144-5.057861-2.565058-7.984194-2.817951-2.76376-0.234829-3.323737-0.848998-3.251482-3.522439 0.108383-4.046288 0.126447-8.092577-0.018064-12.138865-0.090319-2.601185 0.650296-3.287609 3.359865-3.341801 3.793395-0.216765 7.550663-0.14451 11.307931-0.14451zM434.596669 233.384138c0.758679-1.318657 1.697996-1.065763 2.528931-1.101891 3.179227-0.108383 6.358453-0.162574 9.519616-0.325148 1.427039-0.072255 2.980525-0.018064 4.263054-0.559978 4.208863-1.788315 8.182896-4.010161 12.933672-4.407564 1.481231-0.126447 2.691504-2.366356 4.24499-2.727632 2.781823-0.650296 5.057861-1.679932 6.701665-4.082416 0.361276-0.52385 1.19221-0.885126 1.86057-0.993508 4.281118-0.596105 7.15326-3.414056 10.097658-6.159752 0.740615-0.686424 1.390912-1.57155 2.257973-1.987017 4.588202-2.221846 7.96613-5.942986 11.669207-9.248659 9.122213-8.128704 15.914197-18.334745 24.241603-27.186001 1.878634-5.29269 7.243579-8.020322 9.573808-12.987863 0.559977-1.210274 1.71606-1.372848 2.944397-1.318657 5.184307 0.216765 10.368614 0.397403 15.552921 0.614169 1.806379 0.072255 3.540502 0.469658 4.371437 2.257974 0.903189 1.932825 2.601185 2.167655 4.335309 2.221846 4.208863 0.126447 8.381598 0.289021 11.994355 2.817951 5.202371-0.289021 9.194468 2.799887 13.511713 4.91335 4.190799 2.041208 7.875811 4.750776 10.802145 8.399661 0.740615 0.921253 1.119955 1.987017 1.119955 3.197291-0.018064 1.625741 0.325148 3.269546 1.138019 4.570138 1.71606 2.691504 0.903189 5.130116 0.108383 7.839684-1.752187 6.033305-8.652554 10.260231-13.313012 11.560824-0.14451 0.036128-0.343212-0.018064-0.415467 0.054191-3.630821 3.558566-8.851256 3.685013-12.987863 6.123624-0.993508 0.578041-1.842506 1.408975-3.016653 1.643805-3.648885 0.758679-7.279706 1.300593-10.332487 3.865651-1.408975 1.19221-3.630821 0.722552-5.491391 0.66836-1.987017-0.054191-3.666949 0.054191-4.76884 2.095399-0.903189 1.679932-2.583122 2.131527-4.443692 2.095399-4.118544-0.072255-8.002258 0.614169-11.578888 2.926334-1.156082 0.758679-2.709568 1.083827-4.118543 1.228338-3.468247 0.361276-6.755857 0.885126-9.609935 3.269545-1.282529 1.065763-3.215354 1.119955-5.00367 0.993509-2.637313-0.180638-5.184307 0.198702-7.44228 1.734123-2.836015 1.950889-6.051369 2.583122-9.429297 2.745696-2.745696 0.126447-5.383009 0.52385-7.767429 2.23991-2.565058 1.842506-5.708157 1.914762-8.742873 1.950889-2.655377 0.018064-5.093988 0.343212-7.297771 2.113463-1.463167 1.19221-3.377928 1.481231-5.328817 1.499294-6.936494 0.018064-13.854925 0.090319-20.79142 0.180638-1.499294 0.018064-3.016653-0.126447-4.010161-1.246401-3.359865-3.775332-6.647474-7.713237-9.880892-11.488569z" p-id="5905"></path><path d="M447.367767 426.305391c0.162574 2.817951-0.072255 6.430708-0.43353 10.025402-0.469658 4.859159-2.980525 7.225515-7.749365 7.5326-5.328817 0.325148-10.621507 1.065763-15.986453 0.108382-2.709568-0.487722-5.14818-0.830934-7.29777-3.106971-1.589613-1.697996-3.793395-2.90827-5.599774-4.606266-2.420548-2.276037-3.739204-5.346881-6.069433-7.695174-1.0477-1.065763-1.806379-2.565058-2.926333-3.685012-0.505786-0.505786-1.210274-1.029636-1.354784-1.661869-0.957381-4.371437-4.606266-7.604855-5.130116-12.174993-0.072255-0.686424-0.343212-1.535422-0.812871-1.932825-2.619249-2.113463-3.143099-5.021733-3.468247-8.110641-0.180638-1.71606-1.065763-3.233418-1.71606-4.841095-2.366356-5.942986-4.660457-11.940164-6.430708-18.081851-0.848998-2.962461-3.016653-4.461756-4.841095-6.358454-3.883714-4.010161-8.002258-7.785493-11.976292-11.705334-1.083827-1.065763-2.727632-2.330229-1.571549-4.028225 1.011572-1.481231 3.215354-1.264465 4.407564-0.596105 3.95597 2.23991 8.273215 2.203782 12.536269 2.799887 1.372848 0.198702 2.673441 1.0477 3.919842 1.734124 1.661868 0.903189 3.414056 1.517358 5.148179 2.23991 4.606266 1.914762 9.122213 3.992097 13.096246 7.243578 2.745696 2.23991 5.653966 4.371437 8.616427 6.394581 3.847587 2.601185 6.972622 6.286198 10.458933 9.429298 2.438611 2.203782 4.281118 4.949478 6.755857 7.171323 1.697996 1.517358 2.565058 3.811459 4.281118 5.599775 4.552075 4.750776 8.381598 10.187976 12.554332 15.300028 1.174146 1.445103 1.499294 3.106971 1.553486 4.841095 0.090319 2.456675 0.036128 4.91335 0.036127 8.164832z" p-id="5906"></path></svg>