<?xml version="1.0" standalone="no"?><!DOCTYPE svg PUBLIC "-//W3C//DTD SVG 1.1//EN" "http://www.w3.org/Graphics/SVG/1.1/DTD/svg11.dtd"><svg t="1631252138916" class="icon" viewBox="0 0 1024 1024" version="1.1" xmlns="http://www.w3.org/2000/svg" p-id="4243" xmlns:xlink="http://www.w3.org/1999/xlink" width="200" height="200"><defs><style type="text/css"></style></defs><path d="M523.741462 247.726785c0 16.329664-0.018064 32.659328 0 48.988993 0 4.190799 0.072255 8.363534 0.14451 12.554332 0.090319 5.852667 6.250071 11.036974 11.741462 10.007338 2.727632-0.52385 5.220435-1.697996 7.875812-2.366356 10.549252-2.655377 21.297206-3.811459 32.153542-3.955969 5.003669-0.072255 9.736382 1.119955 14.216201 3.323737 5.744285 2.817951 7.640982 8.923511 4.678521 14.469094-1.318657 2.474739-3.070844 4.606266-4.967542 6.521027-5.96105 6.069433-12.120802 11.813717-20.014676 15.607113-5.310754 2.546994-10.621507 5.184307-15.805815 8.002258-2.131527 1.156082-4.588202 1.679932-6.882303 2.546994-4.136607 1.57155-7.857748 4.046288-12.464013 4.750776-2.637313 0.397403-5.166243 2.330229-7.803557 3.468247-1.806379 0.776743-2.745696 2.90827-2.619249 5.130116 1.119955 19.635337 0.37934 39.288738 0.66836 58.924076 0.036128 1.950889-0.830934 4.443692 1.228338 5.617838 2.38442 1.354784 4.859159-0.090319 6.882303-1.318657 2.312165-1.408975 4.3895-3.287609 6.358453-5.184307 7.911939-7.622918 15.878069-15.173582 23.609371-22.959074 14.631668-14.721987 28.883997-29.841377 41.275755-46.604573 8.724809-11.831781 17.756703-23.46486 25.596387-35.892746 4.588202-7.279706 9.338978-14.541349 13.150438-22.326842 2.727632-5.563647 6.087496-10.802145 8.63449-16.474174 3.179227-7.099069 7.207451-13.836861 9.718318-21.243014 1.119955-3.287609 3.034716-6.195879 4.172735-9.501553 1.101891-3.143099 2.113463-6.213943 2.565058-9.555744 0.704488-5.130116 4.642393-7.135196 9.266723-4.732712 5.942986 3.088908 11.669207 6.502964 17.142534 10.476997 6.466836 4.714649 6.557155 11.325995 4.407565 17.395428-1.156082 3.287609-2.709568 6.62941-4.443692 9.754445-3.269546 5.906859-6.990686 11.596952-9.953147 17.648321-3.703076 7.550663-8.146768 14.613604-12.753034 21.586226-5.563647 8.417725-10.314423 17.395428-16.492239 25.397686-5.021733 6.521027-9.591871 13.385267-13.963308 20.267569-5.58171 8.779001-12.301439 16.709004-17.865086 25.488005-4.588202 7.261643-10.007338 14.071691-15.137454 21.044313-4.190799 5.690093-8.128704 11.560824-12.662715 17.016088-0.758679 0.921253-1.463167 1.878634-0.704488 3.106971 0.722552 1.156082 2.00508 1.246401 3.106972 1.029636 4.570138-0.921253 9.212532-0.578041 13.818797-0.903189 6.4849-0.451595 12.987863-0.596105 19.490827-0.830935 1.445103-0.054191 3.034716 0.090319 4.281118-0.451594 6.466836-2.854078 13.349139-2.023144 20.068868-2.366356 7.351962-0.37934 14.613604-0.686424 21.893311-2.38442 5.690093-1.318657 11.77759-1.445103 17.666384-1.336721 11.633079 0.216765 22.977138-2.113463 34.465708-3.179226 2.890206-0.270957 5.726221-0.66836 8.616426-0.054192 1.57155 0.343212 3.161163 0 4.732713-0.108382 10.260231-0.704488 20.394016-0.81287 30.47361 2.203782 6.268134 1.878634 12.355631 3.757268 17.738639 7.550663 5.653966 3.974033 9.790573 9.357042 13.963308 14.685859 2.023144 2.583122 1.71606 7.478408-0.198702 10.187977-1.427039 1.987017-3.070844 3.811459-4.136607 6.069432-1.101891 2.348292-3.395992 2.456675-5.599774 2.420548-5.924922-0.126447-11.849845-0.234829-17.756704-0.505786-5.346881-0.234829-10.657635-0.722552-15.823878-2.257974-2.221846-0.66836-4.552075-0.758679-6.864239-0.758679-23.121648 0-46.243297-0.036128-69.364945-0.018063-8.959639 0-17.88315 1.101891-26.842788 0.885125-0.578041-0.018064-1.19221-0.018064-1.71606 0.162574-9.212532 3.19729-18.858594 2.221846-28.32402 3.106972-1.011572 0.090319-2.131527-0.018064-2.980525 0.397403-4.172735 2.00508-8.742873 1.679932-13.114309 2.456675-5.96105 1.0477-11.795653 2.836015-17.756704 3.883715-6.286198 1.083827-12.319503 3.016653-18.334744 4.931414-7.532599 2.38442-14.740051 5.672029-21.586227 9.664126-3.685013 2.149591-5.346881 5.979114-7.496472 9.338978-6.557155 10.20604-13.25882 20.26757-20.466271 30.022016-4.010161 5.419136-8.453853 10.567316-11.615016 16.654812-2.131527 4.082416-5.29269 7.568727-8.562235 10.856336-0.81287 0.81287-1.625741 1.643805-2.366356 2.528931-0.469658 0.559977-0.81287 1.246401-0.343212 1.968952 0.433531 0.686424 1.156082 0.794807 1.914761 0.722552 1.463167-0.126447 2.781823-0.704488 4.118544-1.300593 1.318657-0.578041 2.619249-1.408975 3.992097-1.625741 5.112052-0.81287 10.151849-1.679932 15.101327-3.414056 3.486311-1.228338 7.333898-1.390912 10.729889-3.179226 1.119955-0.596105 2.492803-0.921253 3.757268-0.939317 4.570138-0.036128 8.779001-1.445103 12.951736-3.088908 5.527519-2.149591 11.615016-2.312165 17.052216-4.859159 1.119955-0.52385 2.565058-0.343212 3.847587-0.541913 1.427039-0.216765 3.016653-0.162574 4.226926-0.812871 7.279706-3.865651 15.155518-3.341801 22.904883-2.962461 4.678521 0.234829 9.609935 0.180638 13.78267 3.05278 0.451595 0.307084 1.101891 0.469658 1.643805 0.451595 4.407564-0.234829 8.146768 1.697996 11.741462 3.847587 2.619249 1.57155 5.635902 2.113463 8.255151 3.739204 7.96613 4.91335 13.439458 12.102738 18.623765 19.599209 5.021733 7.279706 7.00875 15.715495 9.393169 24.024838 2.095399 7.29777 2.854078 14.703923 2.601186 22.254587-0.162574 5.057861 0.090319 10.115721 0.66836 15.137454 0.758679 6.521027-0.758679 12.951736-0.686424 19.454699 0.162574 18.497319 0.307084 36.976574 0.433531 55.473892 0.090319 13.999436 0.216765 28.016935 0.198702 42.016371-0.054191 26.716342-0.975445 53.41462-0.596105 80.130962 0.036128 3.034716-0.072255 6.069433 0.397403 9.086085 0.487722 3.125035-0.52385 5.672029-2.854079 7.749365-3.341801 2.980525-6.701665 5.942986-9.97121 8.995767-2.00508 1.878634-3.901778 3.901778-3.992097 6.936494-0.036128 1.246401-0.794807 1.752187-1.95089 1.842506-5.202371 0.451595-10.386678 0.469658-15.570985-0.036127-0.921253-0.090319-1.987017-0.397403-1.842506-1.408976 0.505786-3.992097-3.088908-6.015241-4.263054-9.230595-0.686424-1.878634-1.71606-3.612758-1.968953-5.653966-0.090319-0.704488-0.180638-1.517358-0.559977-2.077335-2.817951-4.263054-3.016653-9.140277-2.402484-13.818798 0.776743-5.942986-1.210274-10.784081-4.371437-15.372283-4.263054-6.213943-9.176404-11.9221-15.029071-16.709004-5.888795-4.804968-12.879481-6.701665-20.339825-5.455264-9.266723 1.553486-18.605701 2.420548-27.926616 3.395992-5.419136 0.578041-10.784081 1.987017-16.040643 3.504375-4.24499 1.210274-8.48998 1.607677-12.843353 1.589613-13.891053-0.072255-27.70985 0.541914-41.311883 3.648885-2.23991 0.505786-4.570138 0.867062-6.864239 0.885126-7.00875 0.072255-13.475586 2.980525-20.394017 3.666949-4.570138 0.451595-8.020322-0.559977-11.344058-3.793395-5.96105-5.798476-8.562235-12.482077-8.508044-20.881739 0.216765-36.109512 0.036128-72.219023-0.018064-108.328535-0.018064-10.260231-0.018064-20.520463-0.036128-30.780695 0-0.722552 0-1.445103-0.072255-2.167654-0.072255-0.885126-0.289021-1.788315-1.228338-2.113463-1.156082-0.415467-1.878634 0.307084-2.52893 1.174146-5.762348 7.803556-12.391758 14.848434-19.039232 21.893311-0.397403 0.415467-0.704488 0.957381-1.156083 1.282529-6.683601 4.877223-11.596952 11.560824-17.576065 17.142534-4.895286 4.570138-8.887384 9.844764-13.222693 14.866498-6.123624 7.117132-13.150437 13.403331-20.104995 19.707592-3.215354 2.90827-6.322326 5.924922-9.411234 8.959639-3.901778 3.865651-7.67711 7.803556-11.940164 11.307931-2.872142 2.348292-5.14818 5.4372-7.496471 8.363534-6.539091 8.110641-13.602032 15.679368-21.622354 22.381033-6.087496 5.075924-11.867909 10.549252-17.59413 16.040643-4.642393 4.461756-10.242168 7.478408-15.607112 10.838273-3.05278 1.914762-6.232007 3.648885-9.375106 5.383009-1.119955 0.632233-2.330229 1.138019-3.558566 1.553485-1.264465 0.433531-2.637313 0.559977-3.594694-0.632232-1.0477-1.282529-0.830934-2.727632-0.018064-4.046289 0.686424-1.101891 1.427039-2.185718 2.294101-3.143099 14.721987-16.456111 29.064634-33.237369 43.316963-50.090883 6.521027-7.713237 12.897544-15.589049 18.948914-23.591307 9.519616-12.572396 20.032741-24.259667 30.040079-36.380469 7.911939-9.573808 15.570985-19.346317 23.392605-28.956251 8.815128-10.838273 17.792831-21.586226 25.632515-33.23737 3.865651-5.726221 8.580299-10.8744 12.662715-16.45611 9.031894-12.319503 17.847022-24.801581 26.89698-37.121084 5.635902-7.67711 11.885972-14.920689 17.160598-22.832628 6.810048-10.224104 14.559413-19.74372 21.568163-29.787186 4.208863-6.033305 8.146768-12.229184 12.897544-17.847022 0.270957-0.325148 0.541914-0.686424 0.758679-1.065764 1.228338-2.257973 0.361276-3.95597-2.095399-3.630821-2.980525 0.397403-6.051369 0.578041-8.833192 1.987017-1.282529 0.650296-2.565058 1.445103-3.937906 1.770251-6.701665 1.517358-12.608524 4.895286-18.641829 7.948066-0.650296 0.325148-1.264465 0.903189-1.932825 0.957381-5.852667 0.361276-10.820209 3.486311-16.203218 5.238499-1.499294 0.487722-2.998589 1.029636-4.461756 1.62574-10.802145 4.371437-21.712673 8.508044-32.33418 13.258821-5.942986 2.655377-12.283376 4.082416-18.17217 6.791984-8.779001 4.046288-18.081852 6.683601-27.005363 10.386678-3.901778 1.625741-7.82162 3.43212-12.084674 4.425628-3.522439 0.830934-6.882303 2.727632-10.368614 4.028224-4.859159 1.806379-9.338978 4.696585-14.252329 6.213943-4.931414 1.517358-9.465425 4.010161-14.59554 5.112052-4.154671 0.903189-7.893875 3.558566-12.012419 4.823032-9.664126 2.962461-18.388936 8.363534-28.269828 10.693762-5.979114 3.95597-13.25882 4.750776-19.526954 8.020322-3.883714 2.023144-7.984194 3.251482-12.500141 2.872142-2.583122-0.216765-5.202371 0.036128-7.803557 0.018064-2.601185-0.018064-4.606266-1.065763-6.322325-3.161163-2.655377-3.233418-4.479819-7.062941-7.370026-10.151849-1.589613-1.697996-1.101891-4.046288-1.0477-6.232006 0.054191-2.52893 1.914762-3.106971 3.648886-4.226927 6.069433-3.919842 12.915608-6.34039 19.057296-10.115721 2.438611-1.481231 5.328817-2.185718 8.020321-3.179227 8.381598-3.106971 16.672876-6.412645 24.855772-9.953147 7.659046-3.305673 15.516794-6.10556 23.211968-9.230595 3.775332-1.535422 7.67711-3.125035 11.380186-5.039797 2.727632-1.427039 5.81654-2.221846 8.706746-3.43212 6.502964-2.727632 13.042055-5.509455 20.068868-6.683601 1.119955-0.180638 2.276037-0.578041 3.269545-1.119955 7.478408-4.136607 15.534857-6.846176 23.609371-9.447361 0.81287-0.252893 1.553486-0.776743 2.294101-1.19221 6.069433-3.43212 12.626588-5.599774 19.310189-7.496472a66.926334 66.926334 0 0 0 12.012419-4.732712c3.05278-1.57155 6.34039-2.781823 9.53768-3.974034 5.184307-1.932825 9.790573-4.91335 14.613604-7.460344 6.10556-3.233418 11.940164-6.972622 17.865086-10.531188 12.283376-7.351962 22.850692-16.492238 31.467119-28.016935 4.24499-5.672029 6.376517-12.211121 9.212531-18.479255 0.722552-1.589613 0.66836-3.395992 0.66836-5.130116 0.036128-8.092577 0.108383-16.185154 0.108383-24.27773 0-4.588202-0.81287-5.545583-5.202371-5.419137-6.77392 0.198702-13.710415-0.180638-20.285633 1.156083-8.670618 1.752187-17.50381 2.023144-26.102174 3.72114-6.502964 1.282529-12.933672 0.939317-19.418571 1.119955-4.515947 0.126447-7.099069-3.088908-8.887384-6.62941-2.366356-4.696585-3.594694-9.68219-2.655377-15.083263 1.065763-6.051369 4.425628-10.20604 9.790573-12.897544 2.980525-1.499294 6.141688-2.257973 9.465425-2.76376 5.238498-0.81287 10.476997-2.059272 15.534857-3.666949 8.381598-2.673441 16.943833-4.678521 25.289303-7.514536 3.775332-1.282529 7.659046-2.510866 11.542761-3.540502 1.932825-0.505786 3.395992-1.354784 4.154671-3.359864 0.451595-1.19221 1.174146-2.366356 2.041208-3.305674 4.371437-4.678521 5.14818-10.531188 5.383009-16.492238 0.162574-3.901778 0.343212-7.785493 0.993508-11.651143 0.614169-3.57663 0.596105-7.135196 0.180638-10.766017-0.650296-5.744285 0.451595-11.524697 0.198701-17.305109-0.270957-6.358453-0.867062-12.644651-1.62574-18.966977-0.903189-7.424217-0.885126-14.992944-1.029636-22.489416-0.090319-4.497883-0.37934-8.923511-1.589614-13.294948-0.848998-3.070844-0.975445-6.268134-1.427039-9.411233-1.318657-9.248659-1.932825-18.677957-6.159752-27.312447-0.975445-1.987017-2.348292-3.630821-3.57663-5.383009-2.817951-3.992097-4.534011-8.688682-7.803556-12.391758-1.0477-1.19221-1.553486-2.637313-0.433531-3.937906 2.836015-3.287609 5.672029-6.539091 10.675699-6.466836 8.381598 0.126447 16.763195-0.126447 25.144792 0.090319 4.317245 0.108383 8.634491 0.867062 12.409823 3.305673 1.499294 0.975445 3.19729 1.282529 4.931414 1.499294 1.914762 0.234829 3.486311 1.174146 3.666949 3.125036 0.343212 3.739204 2.474739 6.755857 3.648885 10.133785 0.957381 2.781823 1.246401 5.545583 1.156082 8.48998-0.252893 8.237087-0.252893 16.474174-0.270957 24.711261-0.036128 11.416314 0 22.832628 0 34.248942-0.018064-0.018064 0-0.018064 0.018064-0.018064z m-45.340107 492.364663c0.108383 8.815128 0.541914 17.612193 1.029636 26.409258 0.307084 5.527519 2.781823 7.514536 8.219023 6.376517 3.414056-0.722552 6.810048-1.300593 10.296359-1.282529 5.635902 0.018064 11.235676-0.307084 16.853514-1.0477 7.442281-0.975445 14.902625-1.950889 22.290714-3.05278 5.328817-0.776743 10.693762-2.185718 16.040644-3.341801 8.435789-1.842506 16.799323-3.811459 25.488004-4.678521 14.577477-1.463167 27.800169 1.734124 39.993226 9.465425 2.709568 1.71606 5.29269 2.781823 8.453853 2.601185 1.589613-0.090319 3.179227 0 4.76884-0.018063 4.678521-0.054191 5.58171-0.903189 5.491391-5.617838-0.559977-34.790855 0.722552-69.599774-0.704487-104.39063-0.505786-12.373695-0.090319-24.801581-0.090319-37.193339 0-0.578041 0.036128-1.156082 0.14451-1.71606 1.661868-8.146768-0.325148-15.751623-3.468247-23.157775-1.174146-2.76376-2.149591-5.690093-4.407564-7.875812-2.276037-2.221846-4.335309-4.678521-6.773921-6.701665-3.540502-2.944397-7.171324-5.834603-11.669207-7.261643-9.194468-2.926334-18.316681-6.286198-28.016934-7.00875-7.568727-0.578041-15.35422-1.770251-22.218459 3.106972-0.559977 0.397403-1.318657 0.596105-2.023145 0.722551-2.456675 0.433531-4.732712 1.246401-6.810048 2.655377-0.704488 0.469658-1.57155 0.957381-2.366356 0.975445-3.72114 0.108383-6.846176 1.806379-10.224104 3.088908-4.714649 1.788315-9.302851 3.937906-14.125882 5.455263-4.841095 1.535422-8.688682 5.852667-14.342647 5.057861-0.126447-0.018064-0.270957 0.108383-0.397404 0.180638-6.557155 3.685013-13.710415 6.015241-20.484335 9.230595-4.660457 2.203782-9.483489 4.263054-13.331075 7.948067-2.221846 2.131527-3.594694 4.425628-3.395992 7.586791 0.14451 2.167655 0.072255 4.335309 0.072255 6.502963 0 16.889642-0.018064 33.779283-0.018064 50.650861 0 3.95597 1.932825 5.690093 5.780412 4.750776 4.064352-0.993508 8.219023-1.842506 11.904036-3.937905 2.709568-1.553486 5.58171-2.420548 8.616427-2.583122 3.034716-0.162574 5.798476-1.264465 7.96613-3.070844 3.72114-3.088908 7.984194-3.811459 12.500142-4.046288 1.734124-0.090319 3.43212-0.252893 5.075924-0.90319 7.099069-2.76376 14.035563-6.033305 21.694609-7.207451 0.957381-0.14451 1.914762-0.686424 2.727632-1.264465 2.583122-1.86057 5.617838-2.276037 8.616427-2.565058 4.714649-0.451595 9.917019 3.43212 11.036974 8.020322 0.361276 1.445103 0.270957 2.854078-0.325148 4.24499-3.070844 7.207451-8.34547 12.265312-15.119391 16.02258-6.810048 3.775332-13.854925 7.044877-20.899802 10.35055-3.016653 1.408975-6.394581 1.824443-9.248659 3.612758-3.287609 2.059272-6.593283 4.190799-10.802145 3.540502-0.52385-0.090319-1.174146 0.126447-1.679933 0.361276-6.159752 2.90827-12.861417 4.172735-19.292125 6.268134-2.745696 0.885126-5.599774 1.463167-8.309342 2.420548-3.757268 1.300593-4.534011 2.583122-4.515947 6.394581v25.921535z" p-id="4244"></path></svg>