<?xml version="1.0" standalone="no"?><!DOCTYPE svg PUBLIC "-//W3C//DTD SVG 1.1//EN" "http://www.w3.org/Graphics/SVG/1.1/DTD/svg11.dtd"><svg t="1631253809582" class="icon" viewBox="0 0 1024 1024" version="1.1" xmlns="http://www.w3.org/2000/svg" p-id="1918" xmlns:xlink="http://www.w3.org/1999/xlink" width="200" height="200"><defs><style type="text/css"></style></defs><path d="M994.9184 765.7472c-20.48 3.4816-408.3712 20.48-434.7904 20.48s-221.3888-7.9872-277.2992-61.6448c-38.2976-36.6592-57.7536-59.5968-56.5248-115.712-28.0576 16.9984-56.5248 30.3104-80.4864 33.5872-75.3664 10.24-90.112 2.2528-113.0496-13.7216s-37.6832-39.936-20.48-61.6448c0 0-10.24 28.4672 37.6832 23.9616 34.4064-3.2768 105.472-24.3712 186.368-60.416 1.6384-7.9872 3.2768-16.384 5.12-25.1904 23.9616-109.568 20.48-123.2896 20.48-123.2896s1.2288-3.4816 6.7584 0c0 0 27.4432 39.936 27.4432 61.6448 0 13.1072-3.072 35.4304-7.3728 61.6448 14.9504-7.5776 29.9008-15.5648 45.056-23.9616 15.1552-8.6016 29.9008-16.7936 44.2368-24.7808 7.168-30.72 13.7216-59.5968 17.408-74.5472 7.9872-33.1776-11.4688-94.6176-13.7216-99.328-2.2528-4.5056-7.9872 6.7584 6.7584-34.2016 0 0 49.152-22.7328 75.3664-3.4816 26.2144 19.456 10.24 30.72 6.7584 58.1632-1.4336 10.8544-9.216 58.368-18.6368 113.0496 47.3088-25.3952 81.92-43.4176 93.3888-49.3568 0.2048-1.024 0.4096-1.6384 0.6144-2.048 2.2528-7.9872-18.2272-14.7456-13.7216-34.2016 0 0 18.2272-22.7328 51.4048-20.48s83.3536 18.2272 89.088 47.9232c-1.2288 11.4688-5.7344 9.216-13.7216 17.2032S593.92 480.4608 593.92 488.448c0 7.9872-54.6816 125.5424-95.8464 140.288-7.9872 6.7584-46.6944 27.4432-58.1632-41.1648-5.7344-7.168-11.264-13.9264-16.1792-19.8656-4.9152 23.1424-8.8064 39.5264-11.0592 43.8272-10.24 19.456-39.936 106.0864-71.8848 41.1648-11.4688-53.6576 3.4816-63.8976 13.7216-99.328 3.072-10.4448 7.168-27.0336 11.6736-45.6704-8.3968 4.5056-13.9264 7.3728-15.1552 7.9872-3.8912 2.2528-35.0208 29.9008-74.5472 58.9824-7.5776 44.6464-10.24 90.112 29.9008 108.7488 44.4416 20.48 116.3264 55.9104 311.5008 44.4416 195.1744-11.4688 229.376-31.9488 263.5776-41.1648 34.2016-9.216 126.5664-20.48 137.0112 20.48-0.8192 28.8768-3.072 55.0912-23.552 58.5728zM447.2832 560.3328s23.9616 18.2272 37.6832-10.24c8.3968-17.408 28.672-79.4624 43.6224-126.976-24.576 12.6976-55.7056 29.0816-85.1968 44.4416-4.7104 26.4192-9.6256 52.4288-14.1312 74.9568l18.0224 17.8176z" p-id="1919"></path></svg>